Coordinates
version=1
nRows=18
nColumns=22
inDegrees=yes

Units are S.I. units (second, meters, Newtons, ...)
If the header above contains a line with 'inDegrees', this indicates whether rotational values are in degrees (yes) or radians (no).

endheader
time	pelvis_tilt	pelvis_list	pelvis_rotation	pelvis_tx	pelvis_ty	pelvis_tz	hip_flexion_r	hip_adduction_r	hip_rotation_r	knee_angle_r	ankle_angle_r	subtalar_angle_r	hip_flexion_l	hip_adduction_l	hip_rotation_l	knee_angle_l	ankle_angle_l	subtalar_angle_l	lumbar_extension	lumbar_bending	lumbar_rotation
      1.24000000	      4.20822176	     -4.19362048	     32.69844587	     -0.64749775	      0.98802688	      0.50916233	    -13.67543065	      8.74109591	    -12.52195805	    -12.64260351	     17.70623201	      4.39722557	     25.84839657	     -4.04878448	    -17.24052537	    -20.83804966	      7.86522442	     -0.43339592	    -17.27199607	      5.20625071	      8.53060232
      1.25000000	      4.23546233	     -4.06295169	     32.70615428	     -0.64013939	      0.98715594	      0.50465638	    -14.02533009	      8.56991557	    -12.31984913	    -13.20766170	     17.63744430	      4.98050788	     25.84963398	     -4.03298056	    -17.13370185	    -21.70986838	      7.35961930	     -1.20375627	    -17.20412214	      4.93701824	      8.48715457
      1.26000000	      4.23367213	     -3.89096850	     32.71513399	     -0.63269374	      0.98642703	      0.49999509	    -14.31461240	      8.33425523	    -12.08523347	    -13.89027047	     17.49768362	      5.61491421	     25.84070619	     -3.96486389	    -16.91941424	    -22.68610807	      6.83397792	     -2.01358083	    -17.11401788	      4.61310301	      8.41262991
      1.27000000	      4.25294140	     -3.69389364	     32.75685276	     -0.62519576	      0.98585135	      0.49512957	    -14.57471027	      8.07844525	    -11.89893931	    -14.69384883	     17.31650338	      6.34125026	     25.80947716	     -3.88018529	    -16.62782215	    -23.77395030	      6.40453480	     -2.92587867	    -17.04007036	      4.29281062	      8.30647103
      1.28000000	      4.23508341	     -3.46005599	     32.79943381	     -0.61767304	      0.98543131	      0.49007834	    -14.74025566	      7.75277734	    -11.67212393	    -15.65288967	     17.04281752	      7.11168755	     25.74876648	     -3.71644044	    -16.25317817	    -24.84372380	      6.01603728	     -3.81624842	    -16.93736102	      3.93163493	      8.16590140
      1.29000000	      4.21773713	     -3.21155352	     32.85787489	     -0.61015291	      0.98518189	      0.48484549	    -14.82516392	      7.39759481	    -11.45813735	    -16.77169369	     16.66944496	      7.95950547	     25.64462506	     -3.51215650	    -15.82781556	    -25.88402870	      5.71977590	     -4.73857738	    -16.83071312	      3.56926608	      8.04508628
      1.30000000	      4.18235111	     -2.94881997	     32.92195537	     -0.60267208	      0.98509345	      0.47942539	    -14.80064963	      6.99862413	    -11.21672012	    -18.06965847	     16.17210660	      8.84809024	     25.49312704	     -3.25314153	    -15.39162113	    -26.84016786	      5.53021266	     -5.64823688	    -16.70518285	      3.20693941	      7.90586637
      1.31000000	      4.12952463	     -2.68502399	     32.98459807	     -0.59525270	      0.98515960	      0.47386989	    -14.64084275	      6.56378956	    -10.96176948	    -19.57269437	     15.55557860	      9.74638653	     25.28780759	     -2.95354912	    -14.96596194	    -27.67613561	      5.44758497	     -6.52126616	    -16.55819076	      2.84977282	      7.78283992
      1.32000000	      4.06312662	     -2.42849394	     33.03680118	     -0.58791995	      0.98537344	      0.46819219	    -14.34158188	      6.09937946	    -10.66975262	    -21.27816567	     14.78736591	     10.61485138	     25.02888277	     -2.63048125	    -14.58949221	    -28.38881992	      5.48203962	     -7.34423641	    -16.38979995	      2.51056384	      7.67871521
      1.33000000	      4.00489165	     -2.19742108	     33.09291484	     -0.58069606	      0.98573355	      0.46242772	    -13.91450394	      5.64497585	    -10.32680070	    -23.16959195	     13.84549580	     11.44277724	     24.70824447	     -2.31278168	    -14.25862653	    -28.97288890	      5.68371667	     -8.14406565	    -16.21416431	      2.22029921	      7.58818698
      1.34000000	      3.91314886	     -1.97614816	     33.11791763	     -0.57359790	      0.98619816	      0.45665174	    -13.30239040	      5.14760048	     -9.95008690	    -25.29404430	     12.79253092	     12.10191251	     24.34668993	     -1.98261568	    -14.02989620	    -29.41772247	      5.92088471	     -8.80152755	    -16.00681984	      1.92725958	      7.55038269
      1.35000000	      3.82956178	     -1.79179076	     33.15280509	     -0.56663609	      0.98676371	      0.45086196	    -12.55604739	      4.68150965	     -9.52306541	    -27.58175736	     11.57470319	     12.64274567	     23.93920440	     -1.67699432	    -13.84731686	    -29.74736063	      6.31104856	     -9.42070818	    -15.78996022	      1.68903561	      7.49617560
      1.36000000	      3.72779963	     -1.61777566	     33.16504651	     -0.55982163	      0.98740974	      0.44513570	    -11.64908673	      4.19696828	     -9.06395796	    -30.05888023	     10.26672107	     12.94266820	     23.49370770	     -1.37626512	    -13.75707085	    -29.96266058	      6.73853745	     -9.88913486	    -15.56316977	      1.45212151	      7.47862406
      1.37000000	      3.62689053	     -1.44013966	     33.16665156	     -0.55315487	      0.98814841	      0.43948551	    -10.62204422	      3.70016464	     -8.59398835	    -32.68428827	      8.88608392	     13.01527084	     22.99331191	     -1.08080688	    -13.75271462	    -30.07682084	      7.17717930	    -10.20347252	    -15.35511050	      1.21346845	      7.47799888
      1.38000000	      3.50646639	     -1.29057404	     33.17736889	     -0.54666244	      0.98887522	      0.43391686	     -9.44655241	      3.22130265	     -8.11107061	    -35.43042786	      7.49330851	     12.89438455	     22.49312389	     -0.79407825	    -13.77122289	    -30.11352853	      7.68736555	    -10.48428522	    -15.12784894	      0.99588049	      7.45393770
      1.39000000	      3.36212990	     -1.16514642	     33.21261621	     -0.54035158	      0.98955173	      0.42842800	     -8.13931125	      2.76124746	     -7.64214370	    -38.25127766	      6.14358296	     12.49708733	     22.01505647	     -0.51169542	    -13.80642591	    -30.10611186	      8.22895871	    -10.71627974	    -14.87963997	      0.79619492	      7.38438703
      1.40000000	      3.22358707	     -1.00429024	     33.25185859	     -0.53418388	      0.99028018	      0.42304288	     -6.77550343	      2.27565527	     -7.20095679	    -41.11166956	      4.89869139	     11.94438423	     21.47795819	     -0.20275677	    -13.87675964	    -30.02132989	      8.73946788	    -10.81880582	    -14.68085730	      0.56115566	      7.30290090
      1.41000000	      3.07967785	     -0.82774904	     33.31584018	     -0.52818459	      0.99099777	      0.41773018	     -5.35227368	      1.78080034	     -6.79691460	    -43.96090307	      3.81915798	     11.27065679	     20.92191573	      0.13050412	    -13.94734557	    -29.88725304	      9.22627539	    -10.85990075	    -14.50783604	      0.31340640	      7.18845496
